<?xml version="1.0" encoding="utf-8"?>
<!-- Generator: Adobe Illustrator 21.0.2, SVG Export Plug-In . SVG Version: 6.00 Build 0)  -->
<svg version="1.1" id="Layer_1" xmlns="http://www.w3.org/2000/svg" xmlns:xlink="http://www.w3.org/1999/xlink" x="0px" y="0px"
	 width="80px" height="4px" viewBox="0 0 80 4" style="enable-background:new 0 0 80 4;" xml:space="preserve">
<style type="text/css">
	.st0{fill:#fff;}
</style>
<path class="st0" d="M1.8,2.2c0,0,0.7-0.2,4.9-0.3c1.4,0,9.7-0.4,13.1-0.6c3.3-0.2,13.6-0.8,19.4-0.8s22.9-0.2,23.9-0.1
	c1,0,7,0,9.6,0s4.7,0,4.7,0s0.7,0.3-0.2,0.5C76.8,0.9,70,1.8,63.6,2.1c-7.4,0.5-8.4,0.6-24.4,1.2C35.3,3.5,27.6,3.5,18,3.6
	C8.7,3.7,5.6,3.5,4.1,3.4c-1.1,0-1.4-0.2-1.7-0.3S1.8,2.2,1.8,2.2z"/>
</svg>
